Simulation
nRows=44
nColumns=15
endheader
time  TH_x TH_y TH_z SC_y  SC_z  SC_x  AC_y  AC_z  AC_x  GH_y  GH_z  GH_yy  EL_x  PS_y
5.745  0.000000  0.000000  0.000000  -47.7556538983101  12.478374508619387  15.101319923681295  57.62894604497439  14.799817445410538  16.414821706670583  15.602302297691791  55.1540338655291  -30.487608886263452  18.581026920418886  120.000000
5.80245  0.000000  0.000000  0.000000  -46.36200312190067  11.690746832796414  12.680043881522606  57.366995221160934  14.529776553184558  15.671551472218919  15.581515220131445  53.90594346353286  -30.613591914627033  18.879042637592455  120.000000
5.8599  0.000000  0.000000  0.000000  -44.75419746363069  10.638098838700529  9.617547067962976  56.95802619400372  14.300411868252768  14.95014124408395  15.520494303604016  52.277517064704746  -30.49252496515835  19.276339273066696  120.000000
5.91735  0.000000  0.000000  0.000000  -43.06446093369539  9.312816627626272  6.076300358400548  56.36260704565472  14.112714933520925  14.298677201200357  15.421240696613355  50.296500091688515  -30.077710789446265  19.682516037545287  120.000000
5.9748  0.000000  0.000000  0.000000  -41.422053129512335  7.749976009462488  2.240687142265792  55.559163146570164  13.971073192847665  13.762777164905241  15.297551322461763  48.00857132507139  -29.338259560798615  19.98926123925487  120.000000
6.03225  0.000000  0.000000  0.000000  -39.932029822219846  6.026684751547138  -1.7027032305932857  54.55369651249138  13.882963391379551  13.376628390357284  15.178737604334323  45.469238253030746  -28.27902856709931  20.103111049684646  120.000000
6.089700000000001  0.000000  0.000000  0.000000  -38.66107719393601  4.246894752777836  -5.579451356851057  53.384496899422814  13.861131679205737  13.156027522627186  15.111294204494042  42.73576548850867  -26.95320515041775  19.97271382165395  120.000000
6.14715  0.000000  0.000000  0.000000  -37.63622931492034  2.5228021837080257  -9.235703203305448  52.12099187223005  13.924403628620212  13.0952064693667  15.161271995220508  39.86084061325504  -25.465631743647368  19.597368647397822  120.000000
6.2046  0.000000  0.000000  0.000000  -36.85366984827499  0.957274752253868  -12.541597022988588  50.851642393188655  14.094944683184062  13.168921928382739  15.412489347207739  36.88987113114215  -23.963452089090723  19.013653866004724  120.000000
6.26205  0.000000  0.000000  0.000000  -36.29243430080135  -0.3657546766316845  -15.39391114207235  49.667493511388734  14.388669350653851  13.340200428422278  15.967273770194986  33.862111673720946  -22.618833853109095  18.282641811150185  120.000000
6.3195  0.000000  0.000000  0.000000  -35.92136344253033  -1.387895825423203  -17.721762018568846  48.646023067474275  14.80413047088764  13.56549706608225  16.938802936785777  30.81545310231225  -21.602888074078816  17.480808955043944  120.000000
6.37695  0.000000  0.000000  0.000000  -35.700215738318526  -2.086468994777616  -19.489226180426733  47.83558343787151  15.315313690654015  13.80526079281844  18.433209638170624  27.79324642021805  -21.05821540026442  16.68974557150498  120.000000
6.4344  0.000000  0.000000  0.000000  -35.59419850266158  -2.4814570384214782  -20.694384941362536  47.24600125899992  15.870955425531788  14.036669364985046  20.5298336375185  24.84934777911502  -21.07900005299411  15.993442379983858  120.000000
6.49185  0.000000  0.000000  0.000000  -35.58232439656084  -2.620971310616279  -21.370116119292007  46.862179086086314  16.410751325402277  14.23974603204303  23.25879557492078  22.052785487360296  -21.702680261793063  15.46687753097643  120.000000
6.549300000000001  0.000000  0.000000  0.000000  -35.64804764610372  -2.554380564263565  -21.580744897137247  46.674274992283586  16.881999903880253  14.379937193515934  26.601939570612675  19.479535768222373  -22.928162242187923  15.160696024078316  120.000000
6.60675  0.000000  0.000000  0.000000  -35.778204570742844  -2.3427619291790656  -21.40718486502224  46.67020473113065  17.24296158684184  14.4219660624996  30.479598189819715  17.185273184459867  -24.712973050104665  15.090462661910449  120.000000
6.6642  0.000000  0.000000  0.000000  -35.962817552276455  -2.056235321272982  -20.930623481339694  46.816513995774024  17.464595471560045  14.351275064418415  34.73735803647087  15.187138213443717  -26.958875057504795  15.23836182307322  120.000000
6.72165  0.000000  0.000000  0.000000  -36.191903367649246  -1.750226583526961  -20.225572038845684  47.06718201450228  17.53514588238717  14.172389000628563  39.16856912281316  13.471720015350883  -29.520698224410587  15.565146271201494  120.000000
6.7791  0.000000  0.000000  0.000000  -36.45230825132335  -1.4590900621377845  -19.3598441665644  47.37886436694262  17.458117904195234  13.89842201943593  43.54683122048128  12.006850101718376  -32.221643406389546  16.01404370385994  120.000000
6.83655  0.000000  0.000000  0.000000  -36.72433063312765  -1.1994666931152946  -18.393966531455657  47.71961656358417  17.24582697138916  13.545655931511408  47.66405428906979  10.74925336857709  -34.87972844521402  16.50992427353464  120.000000
6.894  0.000000  0.000000  0.000000  -36.982342587184085  -0.9778920038659751  -17.37827087026702  48.069277516622755  16.915420657043573  13.131810952543656  51.35813945915161  9.6525345781772  -37.3356926098401  16.96532202024838  120.000000
6.95145  0.000000  0.000000  0.000000  -37.20006940356518  -0.7954967475040086  -16.35088841923056  48.41641804255071  16.486184567195732  12.676364046411974  54.532112488787384  8.675527938026441  -39.48104216936784  17.299269930067922  120.000000
7.008900000000001  0.000000  0.000000  0.000000  -37.35939470597884  -0.6505804424582693  -15.33817923338314  48.7542596439224  15.978531751834314  12.199185270594363  57.15172287481364  7.789781881915269  -41.267445242815505  17.464914901829285  120.000000
7.06635  0.000000  0.000000  0.000000  -37.458852079715804  -0.5383784144160662  -14.356843658183866  49.07669810696701  15.414484367681457  11.717305631821128  59.213752724084436  6.982650384176412  -42.68390542937339  17.471260008260487  120.000000
7.1238  0.000000  0.000000  0.000000  -37.5146395486551  -0.4519180713848823  -13.41646874678829  49.37639533055574  14.81713712019983  11.242706527512384  60.71300636116653  6.254770796581126  -43.72536351997594  17.380067305047316  120.000000
7.18125  0.000000  0.000000  0.000000  -37.55236857130688  -0.3839491821193311  -12.522204713023042  49.646152294105846  14.208337785756346  10.782759840750378  61.63028905110827  5.613027004770005  -44.37447273662807  17.27759797456816  120.000000
7.2387  0.000000  0.000000  0.000000  -37.59551078594355  -0.32828411429880117  -11.676446488359673  49.881277169897935  13.607350247348826  10.341378418555562  61.930558732097865  5.063388743627721  -44.59138888648892  17.238745998841747  120.000000
7.29615  0.000000  0.000000  0.000000  -37.655583725304496  -0.2801850506867338  -10.879714971933442  50.08189363581719  13.029737197101339  9.921044882948976  61.575491160372785  4.605777758375491  -44.31892265940633  17.30015515786959  120.000000
7.3536  0.000000  0.000000  0.000000  -37.72903399112937  -0.2371966052077956  -10.131649790781017  50.252676391186895  12.486666304134916  9.524333957706196  60.542940796340794  4.232186376780218  -43.50092592925752  17.455069506511748  120.000000
7.41105  0.000000  0.000000  0.000000  -37.80286433562668  -0.197777379273908  -9.43228513514677  50.40046804322529  11.98497327573697  9.153677713397004  58.83729424711496  3.9284760162297427  -42.098779117717285  17.669629990843653  120.000000
7.468500000000001  0.000000  0.000000  0.000000  -37.8630179366474  -0.16057674252285184  -8.782842025867177  50.531334414110795  11.528065216898497  8.810339110107824  56.49071544975213  3.678443094023568  -40.102333741624186  17.905453492203034  120.000000
7.52595  0.000000  0.000000  0.000000  -37.90121107203683  -0.1249459955526167  -8.185426690656447  50.648102449791764  11.11703113229835  8.494321756167317  53.5661624783066  3.468010304134184  -37.54111752103248  18.13614150719578  120.000000
7.5834  0.000000  0.000000  0.000000  -37.917820547918296  -0.09162175186691125  -7.64229522798254  50.74948529062424  10.751682585390252  8.204671108062312  50.16159203730153  3.2870578801795585  -34.49244885157961  18.35287542518473  120.000000
7.64085  0.000000  0.000000  0.000000  -37.91954079622368  -0.06266074655909294  -7.1552441863494725  50.83200180089622  10.43191466549572  7.939188657167812  46.40472772353929  3.1288080634951685  -31.074300211467904  18.55940530978387  120.000000
7.6983  0.000000  0.000000  0.000000  -37.91573873106445  -0.040524325762458714  -6.725207593261041  50.89227796613701  10.158602727306201  7.694419472398364  42.434972027746426  2.988641163936337  -27.423077900463  18.76333823635354  120.000000
7.75575  0.000000  0.000000  0.000000  -37.91534107350028  -0.02750858934564682  -6.352155889617488  50.92847354000301  9.933780913231672  7.466080796447069  38.38156945643995  2.8633263475133623  -23.66767684087237  18.969310231834267  120.000000
7.8132  0.000000  0.000000  0.000000  -37.925401932321954  -0.02602515901641357  -6.03539592485587  50.94039135451519  9.759889271693023  7.25004065314124  34.362313056003174  2.750921647595152  -19.92591268990125  19.176410362967253  120.000000
7.87065  0.000000  0.000000  0.000000  -37.950153863915936  -0.03952723252333708  -5.774106580892113  50.929405573332545  9.638889557935412  7.042866426974195  30.507398291411302  2.6506872876043555  -16.326993257944274  19.379993715012105  120.000000
7.928100000000001  0.000000  0.000000  0.000000  -37.99024632620164  -0.07289722541809397  -5.5678608120505455  50.89827635464696  9.571086363631677  6.842201850491039  27.003458465999962  2.562412195132342  -13.054897918046922  19.576599654132043  120.000000
7.98555  0.000000  0.000000  0.000000  -38.0419613739676  -0.1324159710924208  -5.416831430748412  50.85074700892483  9.55456577917943  6.646567274735726  24.10209723722613  2.4852557341851216  -10.355820728639092  19.76922107369058  120.000000
8.043  0.000000  0.000000  0.000000  -38.097544147209206  -0.22371670243785796  -5.321382773207294  50.789196264722044  9.585727960822993  6.454856728454678  22.047243344210344  2.417591324337363  -8.465638362374133  19.969708476005103  120.000000
8.10045  0.000000  0.000000  0.000000  -38.14766530616773  -0.34804048856389147  -5.280968310708858  50.70894108950088  9.661599590660973  6.265651034338225  20.888965502363693  2.358817715958791  -7.425708788526799  20.194185915205566  120.000000
8.1579  0.000000  0.000000  0.000000  -38.18628939982881  -0.49736420552124216  -5.293952506108237  50.59106543378354  9.782513450219563  6.076417648591947  20.266310493496796  2.3120502349057106  -6.871301031786171  20.451551293347325  120.000000
8.21535  0.000000  0.000000  0.000000  -38.21166608220382  -0.6545890904404099  -5.361681453210876  50.40628044856496  9.950203039799652  5.8844149173971365  19.508477797586806  2.2851626037755848  -6.138165157342466  20.731710443124626  120.000000
